<svg xmlns="http://www.w3.org/2000/svg" width="156" height="54" viewBox="0 0 51.68 17.82" xmlns:xlink="http://www.w3.org/1999/xlink" shape-rendering="geometricPrecision" text-rendering="geometricPrecision" image-rendering="optimizeQuality" fill-rule="evenodd" clip-rule="evenodd"><defs><linearGradient id="id12" gradientUnits="userSpaceOnUse" x1="13.43" y1="8.71" x2="13.43" y2="20.36"><stop offset="0" stop-color="#7d0d1e"/><stop offset="1" stop-color="#ed3237"/></linearGradient><linearGradient id="id13" gradientUnits="userSpaceOnUse" xlink:href="#id12" x1="10.98" y1="10.23" x2="10.98" y2="19.91"/><linearGradient id="id14" gradientUnits="userSpaceOnUse" x1="6.76" y1="14.13" x2="6.76" y2="7.89"><stop offset="0" stop-color="#bdbfc1"/><stop offset=".988" stop-color="#3d383b"/><stop offset="1" stop-color="#3d383b"/></linearGradient><linearGradient id="id15" gradientUnits="userSpaceOnUse" xlink:href="#id14" x1="6.76" y1="16.8" x2="6.76" y2="9.38"/><linearGradient id="id16" gradientUnits="userSpaceOnUse" x1="31.06" y1="14.24" x2="31.06" y2="8.9"><stop offset="0" stop-color="#3d373b"/><stop offset="1" stop-color="#8c8c8c"/></linearGradient><linearGradient id="id17" gradientUnits="userSpaceOnUse" x1="32.2" y1="7.79" x2="32.2" y2="4.25"><stop offset="0" stop-color="#7f2d2e"/><stop offset="1" stop-color="#c63236"/></linearGradient><clipPath id="id0" clip-rule="nonzero"><path d="M9 16.11l6.09-5.84-4.26-5.25h2.65l4.39 5.42-7.69 7.38L9 16.11z"/></clipPath><clipPath id="id3" clip-rule="nonzero"><path d="M8.55 13.32l3.28-3.15-2.71-3.34.79-.79 3.42 4.22-4.14 3.98-.64-.92z"/></clipPath><clipPath id="id6" clip-rule="nonzero"><path d="M8.87 1.72L2.79 7.55l4.25 5.25H4.39L0 7.38 7.69 0l1.18 1.72z"/></clipPath><clipPath id="id9" clip-rule="nonzero"><path d="M9.33 4.5L6.05 7.65l2.7 3.34-.78.79-3.43-4.22 4.15-3.98.64.92z"/></clipPath><mask id="id1"><linearGradient id="id2" gradientUnits="userSpaceOnUse" x1="14.08" y1="27.02" x2="14.08" y2="4.23"><stop offset="0" stop-color="#fff"/><stop offset="1" stop-opacity="0" stop-color="#fff"/></linearGradient><path fill="url(#id2)" d="M8.43 3.48h11.51v6H8.43z"/></mask><mask id="id4"><linearGradient id="id5" gradientUnits="userSpaceOnUse" x1="14.08" y1="25.64" x2="14.08" y2="4.64"><stop offset="0" stop-color="#fff"/><stop offset="1" stop-opacity="0" stop-color="#fff"/></linearGradient><path fill="url(#id5)" d="M8.43 3.94h11.51v5.54H8.43z"/></mask><mask id="id7"><linearGradient id="id8" gradientUnits="userSpaceOnUse" x1="3.92" y1="37.97" x2="3.92" y2="1"><stop offset="0" stop-color="#fff"/><stop offset="1" stop-opacity="0" stop-color="#fff"/></linearGradient><path fill="url(#id8)" d="M-2.88-.18h13.86v9.66H-2.88z"/></mask><mask id="id10"><linearGradient id="id11" gradientUnits="userSpaceOnUse" x1="3.92" y1="37.97" x2="3.92" y2="1"><stop offset="0" stop-color="#fff"/><stop offset="1" stop-opacity="0" stop-color="#fff"/></linearGradient><path fill="url(#id11)" d="M-2.88-.18h13.86v9.66H-2.88z"/></mask><style>.fil4{fill:none;fill-rule:nonzero}.fil3{fill:#fefefe}</style></defs><g id="Camada_x0020_1"><path d="M21.33 10.88h-.79v-.8h2.37v.8h-.79v3.16l-.79-.79v-2.37zm3.56 1.84c.26 0 .48-.09.66-.27.18-.18.27-.39.27-.65s-.09-.47-.27-.65a.898.898 0 00-.66-.27c-.25 0-.47.09-.65.27-.18.18-.27.39-.27.65s.09.47.27.65c.18.18.4.27.65.27zm0 .8c-.47 0-.87-.17-1.21-.51-.33-.33-.5-.74-.5-1.21s.17-.88.5-1.21c.34-.34.74-.51 1.21-.51.48 0 .88.17 1.22.51.33.33.5.74.5 1.21s-.17.88-.5 1.21c-.34.34-.74.51-1.22.51zm2.25-2.64h-.27v-.8h2.91v1.32h-.8v-.52h-1.05v.52h.79v.8h-.79v1.84l-.79-.79v-2.37zm3.16 0h-.26v-.8h2.9v1.32h-.79v-.52H31.1v.52h.79v.8h-.79v1.84l-.8-.79v-2.37zm4.49.52l-1.19 2.12h-.92l2.11-3.7 2.11 3.7h-2.64v-.8h1.28l-.75-1.32zm2.64.3v1.82h-.79V9.79l2.11 2.11v-1.82h.79v3.73l-2.11-2.11zm5.28-1.62v.8h-1.85v1.84h1.06v-.26h.79v1.06h-2.64v-2.64h-.26v-.8h2.9zm-1.06 2.12h-.52v-.8h1.31l-.79.8zm2.11-1.32h-.79v-.8h2.38v.8h-.79v3.16l-.8-.79v-2.37zm2.64 0h-.79v-.8h2.38v.8h-.79v3.16l-.8-.79v-2.37zm3.57 1.84c.25 0 .47-.09.65-.27.18-.18.27-.39.27-.65s-.09-.47-.27-.65a.891.891 0 00-.65-.27c-.26 0-.48.09-.66.27-.18.18-.27.39-.27.65s.09.47.27.65c.18.18.4.27.66.27zm0 .8c-.48 0-.88-.17-1.22-.51-.33-.33-.5-.74-.5-1.21s.17-.88.5-1.21c.34-.34.74-.51 1.22-.51.47 0 .87.17 1.21.51.33.33.5.74.5 1.21s-.17.88-.5 1.21c-.34.34-.74.51-1.21.51z" fill="url(#id16)" fill-rule="nonzero"/><path d="M20.81 4.08v.79h-1.85v1.84h1.06v-.26h.79v1.06h-2.64V4.87h-.26v-.79h2.9zm-1.06 2.11h-.52V5.4h1.31l-.79.79zm2.91 1.59l-2.12-3.7h.92l1.2 2.11.75-1.32h-.23v-.79H24.77l-2.11 3.7zm4.75-3.7v.79h-1.85v1.84h1.05v-.26h.8v1.06h-2.64V4.87h-.27v-.79h2.91zm-1.06 2.11h-.53V5.4h1.32l-.79.79zm3.17-2.11c.29 0 .54.1.74.3.21.21.31.46.31.75s-.1.54-.31.75c-.13.13-.28.22-.45.27l1.36 1.36h-1.12l-1.32-1.32v1.32h-.8V4.87h-.26v-.79h1.85zm0 .79h-.79v.53h.79c.07 0 .13-.03.18-.08.06-.05.08-.12.08-.19s-.02-.13-.08-.18a.217.217 0 00-.18-.08zm2.11 0h-.79v-.79h2.37v.79h-.79v3.16l-.79-.79V4.87zm3.56 1.84c.26 0 .47-.09.65-.27.19-.18.28-.39.28-.65 0-.25-.09-.47-.28-.65a.875.875 0 00-.65-.27c-.25 0-.47.09-.65.27-.18.18-.27.4-.27.65 0 .26.09.47.27.65.18.18.4.27.65.27zm0 .8c-.47 0-.88-.17-1.21-.51-.34-.33-.5-.74-.5-1.21s.16-.88.5-1.21c.33-.34.74-.5 1.21-.5.48 0 .88.16 1.21.5.34.33.51.74.51 1.21s-.17.88-.51 1.21c-.33.34-.73.51-1.21.51zm2.77-1.82v1.82h-.79V3.78l2.11 2.11V4.08h.79V7.8l-2.11-2.11z" fill="url(#id17)" fill-rule="nonzero"/><path fill="url(#id12)" fill-rule="nonzero" d="M9 16.11l6.09-5.84-4.26-5.25h2.65l4.39 5.42-7.69 7.38z"/><g clip-path="url(#id0)"><g id="_2251232470032"><path id="1" class="fil3" mask="url(#id1)" d="M8.48 3.53h11.41v5.9H8.48z"/></g></g><path class="fil4" d="M9 16.11l6.09-5.84-4.26-5.25h2.65l4.39 5.42-7.69 7.38z"/><path fill="url(#id13)" fill-rule="nonzero" d="M8.55 13.32l3.28-3.15-2.71-3.34.79-.79 3.42 4.22-4.14 3.98z"/><g clip-path="url(#id3)"><g id="_2251232470832"><path id="1" class="fil3" mask="url(#id4)" d="M8.48 3.99h11.41v5.44H8.48z"/></g></g><path class="fil4" d="M8.55 13.32l3.28-3.15-2.71-3.34.79-.79 3.42 4.22-4.14 3.98z"/><path fill="url(#id15)" fill-rule="nonzero" d="M8.87 1.72L2.79 7.55l4.25 5.25H4.39L0 7.38 7.69 0z"/><g clip-path="url(#id6)"><g id="_2251232471312"><path id="1" class="fil3" mask="url(#id7)" d="M-2.83-.13h13.76v9.56H-2.83z"/></g></g><path class="fil4" d="M8.87 1.72L2.79 7.55l4.25 5.25H4.39L0 7.38 7.69 0z"/><path fill="url(#id14)" fill-rule="nonzero" d="M9.33 4.5L6.05 7.65l2.7 3.34-.78.79-3.43-4.22 4.15-3.98z"/><g clip-path="url(#id9)"><g id="_2251232474224"><path id="1" class="fil3" mask="url(#id10)" d="M-2.83-.13h13.76v9.56H-2.83z"/></g></g><path class="fil4" d="M9.33 4.5L6.05 7.65l2.7 3.34-.78.79-3.43-4.22 4.15-3.98z"/></g></svg>